<svg xmlns="http://www.w3.org/2000/svg" width="512" height="512" viewBox="0 0 64 64" fill="none">
  <rect width="64" height="64" fill="#F7F4EC"/>
  <circle cx="32" cy="32" r="27" stroke="#2D3319" stroke-width="1.1" opacity="0.55" fill="none"/>
  <g fill="#2D3319" stroke="none">
    <circle cx="32" cy="20" r="7.6"/>
    <circle cx="24.6" cy="26.5" r="6.8"/>
    <circle cx="39.4" cy="26.5" r="6.8"/>
    <circle cx="32" cy="28.3" r="8.2"/>
    <path d="M30.5 34.5 L30.5 43 C30.5 46 29.5 48.6 27.8 50.4 C30.6 49.8 33.4 49.8 36.2 50.4 C34.5 48.6 33.5 46 33.5 43 L33.5 34.5 Z"/>
    <circle cx="41" cy="39.4" r="2.4"/>
  </g>
  <g stroke="#2D3319" stroke-linecap="round" fill="none">
    <path d="M40 32.8 C40.6 34.5 40.9 35.8 41 37" stroke-width="1.2"/>
    <path d="M18.5 51.3 Q32 48 45.5 51.3" stroke-width="1.5"/>
    <path d="M23.5 55.6 Q32 53.6 40.5 55.6" stroke-width="1.3"/>
  </g>
</svg>
