<svg xmlns="http://www.w3.org/2000/svg" width="512" height="512" viewBox="0 0 64 64" fill="none">
  <rect width="64" height="64" fill="#F7F4EC"/>
  <g stroke="#2D3319" stroke-linecap="round" stroke-linejoin="round">
    <circle cx="32" cy="32" r="27" stroke-width="1.1" opacity="0.55"/>
    <path d="M32 24.5 C28 19 18.5 21.7 18.5 31 C18.5 40 25.7 47 32 47 C38.3 47 45.5 40 45.5 31 C45.5 21.7 36 19 32 24.5 Z" stroke-width="1.7"/>
    <path d="M32 23.5 C32 20 33.3 17.8 35.5 16.5" stroke-width="1.7"/>
    <path d="M35.5 16.5 C39.5 14.3 43 16 43 19 C40 21.2 36 20 35.5 16.5 Z" stroke-width="1.5"/>
    <path d="M22 39 L27.8 31.5 L31.4 35.5 L36.3 29 L42.5 39" stroke-width="1.5"/>
  </g>
</svg>
